<?xml version="1.0" standalone="no"?>
<!DOCTYPE svg PUBLIC "-//W3C//DTD SVG 20010904//EN"
 "http://www.w3.org/TR/2001/REC-SVG-20010904/DTD/svg10.dtd">
<svg version="1.0" xmlns="http://www.w3.org/2000/svg"
 width="50.000000pt" height="50.000000pt" viewBox="0 0 50.000000 50.000000"
 preserveAspectRatio="xMidYMid meet">

<g transform="translate(0.000000,50.000000) scale(0.100000,-0.100000)"
fill="#FF0000" stroke="none">
<path d="M180 451 c-98 -32 -160 -107 -160 -193 0 -41 35 -112 68 -138 25 -20
25 -21 9 -56 -9 -19 -17 -37 -17 -41 0 -10 63 7 89 24 16 10 42 16 67 14 161
-10 284 134 229 267 -20 48 -50 79 -100 104 -43 22 -144 33 -185 19z m175 -37
c21 -11 53 -37 69 -58 27 -33 31 -46 31 -96 0 -50 -4 -63 -31 -96 -45 -56 -96
-79 -177 -80 -44 -1 -73 -6 -85 -16 -9 -8 -24 -18 -33 -21 -14 -5 -15 -1 -7
26 9 29 7 35 -31 74 -44 47 -57 90 -46 151 8 44 74 112 126 130 49 16 138 9
184 -14z"/>
<path d="M202 348 c-14 -14 -16 -48 -3 -48 5 0 13 9 16 21 5 15 14 19 33 17
36 -4 38 -28 8 -73 -30 -43 -32 -55 -11 -55 8 0 15 6 15 13 0 8 11 24 25 37
46 43 24 100 -39 100 -17 0 -37 -5 -44 -12z"/>
<path d="M237 183 c-12 -11 -8 -23 8 -23 8 0 15 7 15 15 0 16 -12 20 -23 8z"/>
</g>
</svg>
